<?xml version="1.0" encoding="UTF-8" standalone="no"?>
<svg xmlns="http://www.w3.org/2000/svg" contentScriptType="application/ecmascript" contentStyleType="text/css"
     height="352px" preserveAspectRatio="none" style="width:929px;height:352px;" version="1.1" viewBox="0 0 929 352"
     width="929px" zoomAndPan="magnify"><defs><filter height="300%" id="fj4buolaw2h4b" width="300%" x="-1" y="-1"><feGaussianBlur result="blurOut" stdDeviation="2.0"/><feColorMatrix in="blurOut" result="blurOut2" type="matrix" values="0 0 0 0 0 0 0 0 0 0 0 0 0 0 0 0 0 0 .4 0"/><feOffset dx="4.0" dy="4.0" in="blurOut2" result="blurOut3"/><feBlend in="SourceGraphic" in2="blurOut3" mode="normal"/></filter></defs><g><!--cluster global.namespace.fun-io--><polygon fill="#FFFFFF" filter="url(#fj4buolaw2h4b)" points="14,77,197,77,204,99.4883,739,99.4883,739,340,14,340,14,77" style="stroke: #000000; stroke-width: 1.5;"/><line style="stroke: #000000; stroke-width: 1.5;" x1="14" x2="204" y1="99.4883" y2="99.4883"/><text fill="#000000" font-family="sans-serif" font-size="14" font-weight="bold" lengthAdjust="spacingAndGlyphs" textLength="177" x="18" y="92.5352">global.namespace.fun-io</text><!--entity fun-io-api--><rect fill="#FEFECE" filter="url(#fj4buolaw2h4b)" height="36.4883" style="stroke: #A80036; stroke-width: 1.5;" width="93" x="262.5" y="104"/><rect fill="#FEFECE" height="5" style="stroke: #A80036; stroke-width: 1.5;" width="10" x="257.5" y="109"/><rect fill="#FEFECE" height="5" style="stroke: #A80036; stroke-width: 1.5;" width="10" x="257.5" y="130.4883"/><text fill="#000000" font-family="sans-serif" font-size="14" lengthAdjust="spacingAndGlyphs" textLength="73" x="272.5" y="127.5352">fun-io-api</text><!--entity fun-io-bios--><rect fill="#FEFECE" filter="url(#fj4buolaw2h4b)" height="36.4883" style="stroke: #A80036; stroke-width: 1.5;" width="101" x="163.5" y="296"/><rect fill="#FEFECE" height="5" style="stroke: #A80036; stroke-width: 1.5;" width="10" x="158.5" y="301"/><rect fill="#FEFECE" height="5" style="stroke: #A80036; stroke-width: 1.5;" width="10" x="158.5" y="322.4883"/><text fill="#000000" font-family="sans-serif" font-size="14" lengthAdjust="spacingAndGlyphs" textLength="81" x="173.5" y="319.5352">fun-io-bios</text><!--entity fun-io-commons-compress--><rect fill="#FEFECE" filter="url(#fj4buolaw2h4b)" height="36.4883" style="stroke: #A80036; stroke-width: 1.5;" width="213" x="22.5" y="200"/><rect fill="#FEFECE" height="5" style="stroke: #A80036; stroke-width: 1.5;" width="10" x="17.5" y="205"/><rect fill="#FEFECE" height="5" style="stroke: #A80036; stroke-width: 1.5;" width="10" x="17.5" y="226.4883"/><text fill="#000000" font-family="sans-serif" font-size="14" lengthAdjust="spacingAndGlyphs" textLength="193" x="32.5" y="223.5352">fun-io-commons-compress</text><!--entity fun-io-jackson--><rect fill="#FEFECE" filter="url(#fj4buolaw2h4b)" height="36.4883" style="stroke: #A80036; stroke-width: 1.5;" width="124" x="345" y="200"/><rect fill="#FEFECE" height="5" style="stroke: #A80036; stroke-width: 1.5;" width="10" x="340" y="205"/><rect fill="#FEFECE" height="5" style="stroke: #A80036; stroke-width: 1.5;" width="10" x="340" y="226.4883"/><text fill="#000000" font-family="sans-serif" font-size="14" lengthAdjust="spacingAndGlyphs" textLength="104" x="355" y="223.5352">fun-io-jackson</text><!--entity fun-io-jaxb--><rect fill="#FEFECE" filter="url(#fj4buolaw2h4b)" height="36.4883" style="stroke: #A80036; stroke-width: 1.5;" width="102" x="629" y="200"/><rect fill="#FEFECE" height="5" style="stroke: #A80036; stroke-width: 1.5;" width="10" x="624" y="205"/><rect fill="#FEFECE" height="5" style="stroke: #A80036; stroke-width: 1.5;" width="10" x="624" y="226.4883"/><text fill="#000000" font-family="sans-serif" font-size="14" lengthAdjust="spacingAndGlyphs" textLength="82" x="639" y="223.5352">fun-io-jaxb</text><!--entity fun-io-scala-api--><rect fill="#FEFECE" filter="url(#fj4buolaw2h4b)" height="36.4883" style="stroke: #A80036; stroke-width: 1.5;" width="135" x="299.5" y="296"/><rect fill="#FEFECE" height="5" style="stroke: #A80036; stroke-width: 1.5;" width="10" x="294.5" y="301"/><rect fill="#FEFECE" height="5" style="stroke: #A80036; stroke-width: 1.5;" width="10" x="294.5" y="322.4883"/><text fill="#000000" font-family="sans-serif" font-size="14" lengthAdjust="spacingAndGlyphs" textLength="115" x="309.5" y="319.5352">fun-io-scala-api</text><!--entity fun-io-xz--><rect fill="#FEFECE" filter="url(#fj4buolaw2h4b)" height="36.4883" style="stroke: #A80036; stroke-width: 1.5;" width="89" x="504.5" y="200"/><rect fill="#FEFECE" height="5" style="stroke: #A80036; stroke-width: 1.5;" width="10" x="499.5" y="205"/><rect fill="#FEFECE" height="5" style="stroke: #A80036; stroke-width: 1.5;" width="10" x="499.5" y="226.4883"/><text fill="#000000" font-family="sans-serif" font-size="14" lengthAdjust="spacingAndGlyphs" textLength="69" x="514.5" y="223.5352">fun-io-xz</text><!--entity commons-compress--><rect fill="#FEFECE" filter="url(#fj4buolaw2h4b)" height="36.4883" style="stroke: #A80036; stroke-width: 1.5;" width="161" x="48.5" y="8"/><rect fill="#FEFECE" height="5" style="stroke: #A80036; stroke-width: 1.5;" width="10" x="43.5" y="13"/><rect fill="#FEFECE" height="5" style="stroke: #A80036; stroke-width: 1.5;" width="10" x="43.5" y="34.4883"/><text fill="#000000" font-family="sans-serif" font-size="14" lengthAdjust="spacingAndGlyphs" textLength="141" x="58.5" y="31.5352">commons-compress</text><!--entity activation-api--><rect fill="#FEFECE" filter="url(#fj4buolaw2h4b)" height="36.4883" style="stroke: #A80036; stroke-width: 1.5;" width="115" x="594.5" y="8"/><rect fill="#FEFECE" height="5" style="stroke: #A80036; stroke-width: 1.5;" width="10" x="589.5" y="13"/><rect fill="#FEFECE" height="5" style="stroke: #A80036; stroke-width: 1.5;" width="10" x="589.5" y="34.4883"/><text fill="#000000" font-family="sans-serif" font-size="14" lengthAdjust="spacingAndGlyphs" textLength="95" x="604.5" y="31.5352">activation-api</text><!--entity jackson-databind--><rect fill="#FEFECE" filter="url(#fj4buolaw2h4b)" height="36.4883" style="stroke: #A80036; stroke-width: 1.5;" width="141" x="338.5" y="8"/><rect fill="#FEFECE" height="5" style="stroke: #A80036; stroke-width: 1.5;" width="10" x="333.5" y="13"/><rect fill="#FEFECE" height="5" style="stroke: #A80036; stroke-width: 1.5;" width="10" x="333.5" y="34.4883"/><text fill="#000000" font-family="sans-serif" font-size="14" lengthAdjust="spacingAndGlyphs" textLength="121" x="348.5" y="31.5352">jackson-databind</text><!--entity jaxb-api--><rect fill="#FEFECE" filter="url(#fj4buolaw2h4b)" height="36.4883" style="stroke: #A80036; stroke-width: 1.5;" width="79" x="744.5" y="8"/><rect fill="#FEFECE" height="5" style="stroke: #A80036; stroke-width: 1.5;" width="10" x="739.5" y="13"/><rect fill="#FEFECE" height="5" style="stroke: #A80036; stroke-width: 1.5;" width="10" x="739.5" y="34.4883"/><text fill="#000000" font-family="sans-serif" font-size="14" lengthAdjust="spacingAndGlyphs" textLength="59" x="754.5" y="31.5352">jaxb-api</text><!--entity jaxb-runtime--><rect fill="#FEFECE" filter="url(#fj4buolaw2h4b)" height="36.4883" style="stroke: #A80036; stroke-width: 1.5;" width="112" x="806" y="104"/><rect fill="#FEFECE" height="5" style="stroke: #A80036; stroke-width: 1.5;" width="10" x="801" y="109"/><rect fill="#FEFECE" height="5" style="stroke: #A80036; stroke-width: 1.5;" width="10" x="801" y="130.4883"/><text fill="#000000" font-family="sans-serif" font-size="14" lengthAdjust="spacingAndGlyphs" textLength="92" x="816" y="127.5352">jaxb-runtime</text><!--entity xz--><rect fill="#FEFECE" filter="url(#fj4buolaw2h4b)" height="36.4883" style="stroke: #A80036; stroke-width: 1.5;" width="37" x="522.5" y="8"/><rect fill="#FEFECE" height="5" style="stroke: #A80036; stroke-width: 1.5;" width="10" x="517.5" y="13"/><rect fill="#FEFECE" height="5" style="stroke: #A80036; stroke-width: 1.5;" width="10" x="517.5" y="34.4883"/><text fill="#000000" font-family="sans-serif" font-size="14" lengthAdjust="spacingAndGlyphs" textLength="17" x="532.5" y="31.5352">xz</text><!--link fun-io-api to fun-io-bios--><path d="M291.307,158.1821 C280.32,180.6095 265.8851,210.0014 253,236 C242.8481,256.4838 231.1036,279.9405 223.1772,295.7364 " fill="none" id="fun-io-api-fun-io-bios" style="stroke: #A80036; stroke-width: 1.0;"/><polygon fill="none" points="285.0366,155.0702,300.1164,140.184,297.6111,161.225,285.0366,155.0702" style="stroke: #A80036; stroke-width: 1.0;"/><!--link fun-io-api to fun-io-commons-compress--><path d="M257.3589,149.5419 C227.0568,165.703 189.6178,185.6705 163.0103,199.8612 " fill="none" id="fun-io-api-fun-io-commons-compress" style="stroke: #A80036; stroke-width: 1.0;"/><polygon fill="none" points="254.2022,143.2922,275.1434,140.0569,260.7904,155.6452,254.2022,143.2922" style="stroke: #A80036; stroke-width: 1.0;"/><!--link fun-io-api to fun-io-jackson--><path d="M341.8311,154.1611 C357.3033,169.3175 375.1977,186.8467 388.3164,199.6977 " fill="none" id="fun-io-api-fun-io-jackson" style="stroke: #A80036; stroke-width: 1.0;"/><polygon fill="none" points="336.8218,159.053,327.4331,140.0569,346.6187,149.052,336.8218,159.053" style="stroke: #A80036; stroke-width: 1.0;"/><!--link fun-io-api to fun-io-jaxb--><path d="M375.0173,139.0017 C436.2078,154.772 529.7684,178.9144 611,200 C616.7518,201.493 622.7725,203.059 628.759,204.618 " fill="none" id="fun-io-api-fun-io-jaxb" style="stroke: #A80036; stroke-width: 1.0;"/><polygon fill="none" points="373.192,145.7601,355.5713,133.991,376.6854,132.2029,373.192,145.7601" style="stroke: #A80036; stroke-width: 1.0;"/><!--link fun-io-api to fun-io-scala-api--><path d="M310.8275,145.2316 C313.1381,168.6146 318.078,205.488 328,236 C334.9761,257.4529 347.0433,280.3566 355.9119,295.7549 " fill="none" id="fun-io-api-fun-io-scala-api" style="stroke: #A80036; stroke-width: 1.0;"/><polygon fill="#A80036" points="310.3473,140.1664,307.2145,149.5037,310.8192,145.1441,315.1788,148.7488,310.3473,140.1664" style="stroke: #A80036; stroke-width: 1.0;"/><!--link fun-io-api to fun-io-xz--><path d="M372.8868,147.5547 C414.4025,164.161 467.4826,185.393 504.4663,200.1865 " fill="none" id="fun-io-api-fun-io-xz" style="stroke: #A80036; stroke-width: 1.0;"/><polygon fill="none" points="370.1119,153.9841,354.1422,140.0569,375.3115,140.9854,370.1119,153.9841" style="stroke: #A80036; stroke-width: 1.0;"/><!--link commons-compress to fun-io-commons-compress--><path d="M129,49.5021 C129,88.2919 129,164.8938 129,199.8452 " fill="none" id="commons-compress-fun-io-commons-compress" style="stroke: #A80036; stroke-width: 1.0;"/><polygon fill="#A80036" points="129,44.0629,125,53.0629,129,49.0629,133,53.0629,129,44.0629" style="stroke: #A80036; stroke-width: 1.0;"/><!--link activation-api to fun-io-jaxb--><path d="M655.3581,49.0271 C660.9926,87.6633 672.2345,164.7506 677.3524,199.8452 " fill="none" id="activation-api-fun-io-jaxb" style="stroke: #A80036; stroke-width: 1.0;"/><polygon fill="#A80036" points="654.6342,44.0629,651.9749,53.5459,655.3558,49.0106,659.8911,52.3914,654.6342,44.0629" style="stroke: #A80036; stroke-width: 1.0;"/><!--link jackson-databind to fun-io-jackson--><path d="M408.7552,49.5021 C408.3511,88.2919 407.5532,164.8938 407.1891,199.8452 " fill="none" id="jackson-databind-fun-io-jackson" style="stroke: #A80036; stroke-width: 1.0;"/><polygon fill="#A80036" points="408.8118,44.0629,404.7182,53.0207,408.7597,49.0626,412.7177,53.1041,408.8118,44.0629" style="stroke: #A80036; stroke-width: 1.0;"/><!--link jaxb-api to fun-io-jaxb--><path d="M771.7822,48.556 C750.9403,87.0333 708.921,164.6073 689.8338,199.8452 " fill="none" id="jaxb-api-fun-io-jaxb" style="stroke: #A80036; stroke-width: 1.0;"/><polygon fill="#A80036" points="774.2159,44.0629,766.4122,50.0714,771.8345,48.4593,773.4465,53.8817,774.2159,44.0629" style="stroke: #A80036; stroke-width: 1.0;"/><!--link jaxb-runtime to fun-io-jaxb--><path d="M823.1036,142.5168 C790.8237,159.5435 745.3522,183.5285 714.3882,199.8612 " fill="none" id="jaxb-runtime-fun-io-jaxb" style="stroke: #A80036; stroke-width: 1.0;"/><polygon fill="#A80036" points="827.7672,140.0569,817.9406,140.7181,823.3448,142.3898,821.6731,147.794,827.7672,140.0569" style="stroke: #A80036; stroke-width: 1.0;"/><!--link xz to fun-io-xz--><path d="M541.9793,49.5021 C543.5955,88.2919 546.7872,164.8938 548.2436,199.8452 " fill="none" id="xz-fun-io-xz" style="stroke: #A80036; stroke-width: 1.0;"/><polygon fill="#A80036" points="541.7526,44.0629,538.1307,53.2216,541.9607,49.0586,546.1238,52.8886,541.7526,44.0629" style="stroke: #A80036; stroke-width: 1.0;"/><!--
@startuml

folder global.namespace.fun-io {
    [fun-io-api] <|- - - [fun-io-bios]
    [fun-io-api] <|- - [fun-io-commons-compress]
    [fun-io-api] <|- - [fun-io-jackson]
    [fun-io-api] <|- - [fun-io-jaxb]
    [fun-io-api] <- - - [fun-io-scala-api]
    [fun-io-api] <|- - [fun-io-xz]
}

[commons-compress] <- - - [fun-io-commons-compress]
[activation-api] <- - - [fun-io-jaxb]
[jackson-databind] <- - - [fun-io-jackson]
[jaxb-api] <- - - [fun-io-jaxb]
[jaxb-runtime] <- - [fun-io-jaxb]
[xz] <- - - [fun-io-xz]

@enduml

PlantUML version 1.2018.01(Sun Jan 28 22:08:22 GST 2018)
(GPL source distribution)
Java Runtime: OpenJDK Runtime Environment
JVM: OpenJDK 64-Bit Server VM
Java Version: 1.8.0_152-release-1136-b27
Operating System: Mac OS X
OS Version: 10.13.4
Default Encoding: UTF-8
Language: en
Country: AE
--></g></svg>