<?xml version="1.0" encoding="UTF-8" standalone="no"?><svg xmlns="http://www.w3.org/2000/svg" xmlns:xlink="http://www.w3.org/1999/xlink" contentScriptType="application/ecmascript" contentStyleType="text/css" height="352px" preserveAspectRatio="none" style="width:1041px;height:352px;" version="1.1" viewBox="0 0 1041 352" width="1041px" zoomAndPan="magnify"><defs><filter height="300%" id="fm3ty1o1u9e0f" width="300%" x="-1" y="-1"><feGaussianBlur result="blurOut" stdDeviation="2.0"/><feColorMatrix in="blurOut" result="blurOut2" type="matrix" values="0 0 0 0 0 0 0 0 0 0 0 0 0 0 0 0 0 0 .4 0"/><feOffset dx="4.0" dy="4.0" in="blurOut2" result="blurOut3"/><feBlend in="SourceGraphic" in2="blurOut3" mode="normal"/></filter></defs><g><!--cluster global.namespace.fun-io--><polygon fill="#FFFFFF" filter="url(#fm3ty1o1u9e0f)" points="14,77,197,77,204,99.4883,875,99.4883,875,340,14,340,14,77" style="stroke: #000000; stroke-width: 1.5;"/><line style="stroke: #000000; stroke-width: 1.5;" x1="14" x2="204" y1="99.4883" y2="99.4883"/><text fill="#000000" font-family="sans-serif" font-size="14" font-weight="bold" lengthAdjust="spacingAndGlyphs" textLength="177" x="18" y="92.5352">global.namespace.fun-io</text><!--entity fun-io-api--><rect fill="#FEFECE" filter="url(#fm3ty1o1u9e0f)" height="36.4883" style="stroke: #A80036; stroke-width: 1.5;" width="93" x="397.5" y="104"/><rect fill="#FEFECE" height="5" style="stroke: #A80036; stroke-width: 1.5;" width="10" x="392.5" y="109"/><rect fill="#FEFECE" height="5" style="stroke: #A80036; stroke-width: 1.5;" width="10" x="392.5" y="130.4883"/><text fill="#000000" font-family="sans-serif" font-size="14" lengthAdjust="spacingAndGlyphs" textLength="73" x="407.5" y="127.5352">fun-io-api</text><!--entity fun-io-commons-compress--><rect fill="#FEFECE" filter="url(#fm3ty1o1u9e0f)" height="36.4883" style="stroke: #A80036; stroke-width: 1.5;" width="213" x="22.5" y="200"/><rect fill="#FEFECE" height="5" style="stroke: #A80036; stroke-width: 1.5;" width="10" x="17.5" y="205"/><rect fill="#FEFECE" height="5" style="stroke: #A80036; stroke-width: 1.5;" width="10" x="17.5" y="226.4883"/><text fill="#000000" font-family="sans-serif" font-size="14" lengthAdjust="spacingAndGlyphs" textLength="193" x="32.5" y="223.5352">fun-io-commons-compress</text><!--entity fun-io-jackson--><rect fill="#FEFECE" filter="url(#fm3ty1o1u9e0f)" height="36.4883" style="stroke: #A80036; stroke-width: 1.5;" width="124" x="481" y="200"/><rect fill="#FEFECE" height="5" style="stroke: #A80036; stroke-width: 1.5;" width="10" x="476" y="205"/><rect fill="#FEFECE" height="5" style="stroke: #A80036; stroke-width: 1.5;" width="10" x="476" y="226.4883"/><text fill="#000000" font-family="sans-serif" font-size="14" lengthAdjust="spacingAndGlyphs" textLength="104" x="491" y="223.5352">fun-io-jackson</text><!--entity fun-io-jaxb--><rect fill="#FEFECE" filter="url(#fm3ty1o1u9e0f)" height="36.4883" style="stroke: #A80036; stroke-width: 1.5;" width="102" x="765" y="200"/><rect fill="#FEFECE" height="5" style="stroke: #A80036; stroke-width: 1.5;" width="10" x="760" y="205"/><rect fill="#FEFECE" height="5" style="stroke: #A80036; stroke-width: 1.5;" width="10" x="760" y="226.4883"/><text fill="#000000" font-family="sans-serif" font-size="14" lengthAdjust="spacingAndGlyphs" textLength="82" x="775" y="223.5352">fun-io-jaxb</text><!--entity fun-io-bios--><rect fill="#FEFECE" filter="url(#fm3ty1o1u9e0f)" height="36.4883" style="stroke: #A80036; stroke-width: 1.5;" width="101" x="270.5" y="200"/><rect fill="#FEFECE" height="5" style="stroke: #A80036; stroke-width: 1.5;" width="10" x="265.5" y="205"/><rect fill="#FEFECE" height="5" style="stroke: #A80036; stroke-width: 1.5;" width="10" x="265.5" y="226.4883"/><text fill="#000000" font-family="sans-serif" font-size="14" lengthAdjust="spacingAndGlyphs" textLength="81" x="280.5" y="223.5352">fun-io-bios</text><!--entity fun-io-xz--><rect fill="#FEFECE" filter="url(#fm3ty1o1u9e0f)" height="36.4883" style="stroke: #A80036; stroke-width: 1.5;" width="89" x="640.5" y="200"/><rect fill="#FEFECE" height="5" style="stroke: #A80036; stroke-width: 1.5;" width="10" x="635.5" y="205"/><rect fill="#FEFECE" height="5" style="stroke: #A80036; stroke-width: 1.5;" width="10" x="635.5" y="226.4883"/><text fill="#000000" font-family="sans-serif" font-size="14" lengthAdjust="spacingAndGlyphs" textLength="69" x="650.5" y="223.5352">fun-io-xz</text><!--entity fun-io-scala-api--><rect fill="#FEFECE" filter="url(#fm3ty1o1u9e0f)" height="36.4883" style="stroke: #A80036; stroke-width: 1.5;" width="135" x="280.5" y="296"/><rect fill="#FEFECE" height="5" style="stroke: #A80036; stroke-width: 1.5;" width="10" x="275.5" y="301"/><rect fill="#FEFECE" height="5" style="stroke: #A80036; stroke-width: 1.5;" width="10" x="275.5" y="322.4883"/><text fill="#000000" font-family="sans-serif" font-size="14" lengthAdjust="spacingAndGlyphs" textLength="115" x="290.5" y="319.5352">fun-io-scala-api</text><!--entity fun-io-delta--><rect fill="#FEFECE" filter="url(#fm3ty1o1u9e0f)" height="36.4883" style="stroke: #A80036; stroke-width: 1.5;" width="106" x="451" y="296"/><rect fill="#FEFECE" height="5" style="stroke: #A80036; stroke-width: 1.5;" width="10" x="446" y="301"/><rect fill="#FEFECE" height="5" style="stroke: #A80036; stroke-width: 1.5;" width="10" x="446" y="322.4883"/><text fill="#000000" font-family="sans-serif" font-size="14" lengthAdjust="spacingAndGlyphs" textLength="86" x="461" y="319.5352">fun-io-delta</text><!--entity commons-compress--><rect fill="#FEFECE" filter="url(#fm3ty1o1u9e0f)" height="36.4883" style="stroke: #A80036; stroke-width: 1.5;" width="161" x="48.5" y="8"/><rect fill="#FEFECE" height="5" style="stroke: #A80036; stroke-width: 1.5;" width="10" x="43.5" y="13"/><rect fill="#FEFECE" height="5" style="stroke: #A80036; stroke-width: 1.5;" width="10" x="43.5" y="34.4883"/><text fill="#000000" font-family="sans-serif" font-size="14" lengthAdjust="spacingAndGlyphs" textLength="141" x="58.5" y="31.5352">commons-compress</text><!--entity jackson-databind--><rect fill="#FEFECE" filter="url(#fm3ty1o1u9e0f)" height="36.4883" style="stroke: #A80036; stroke-width: 1.5;" width="141" x="473.5" y="8"/><rect fill="#FEFECE" height="5" style="stroke: #A80036; stroke-width: 1.5;" width="10" x="468.5" y="13"/><rect fill="#FEFECE" height="5" style="stroke: #A80036; stroke-width: 1.5;" width="10" x="468.5" y="34.4883"/><text fill="#000000" font-family="sans-serif" font-size="14" lengthAdjust="spacingAndGlyphs" textLength="121" x="483.5" y="31.5352">jackson-databind</text><!--entity activation-api--><rect fill="#FEFECE" filter="url(#fm3ty1o1u9e0f)" height="36.4883" style="stroke: #A80036; stroke-width: 1.5;" width="115" x="730.5" y="8"/><rect fill="#FEFECE" height="5" style="stroke: #A80036; stroke-width: 1.5;" width="10" x="725.5" y="13"/><rect fill="#FEFECE" height="5" style="stroke: #A80036; stroke-width: 1.5;" width="10" x="725.5" y="34.4883"/><text fill="#000000" font-family="sans-serif" font-size="14" lengthAdjust="spacingAndGlyphs" textLength="95" x="740.5" y="31.5352">activation-api</text><!--entity jaxb-runtime--><rect fill="#FEFECE" filter="url(#fm3ty1o1u9e0f)" height="36.4883" style="stroke: #A80036; stroke-width: 1.5;" width="112" x="881" y="8"/><rect fill="#FEFECE" height="5" style="stroke: #A80036; stroke-width: 1.5;" width="10" x="876" y="13"/><rect fill="#FEFECE" height="5" style="stroke: #A80036; stroke-width: 1.5;" width="10" x="876" y="34.4883"/><text fill="#000000" font-family="sans-serif" font-size="14" lengthAdjust="spacingAndGlyphs" textLength="92" x="891" y="31.5352">jaxb-runtime</text><!--entity jaxb-api--><rect fill="#FEFECE" filter="url(#fm3ty1o1u9e0f)" height="36.4883" style="stroke: #A80036; stroke-width: 1.5;" width="79" x="951.5" y="104"/><rect fill="#FEFECE" height="5" style="stroke: #A80036; stroke-width: 1.5;" width="10" x="946.5" y="109"/><rect fill="#FEFECE" height="5" style="stroke: #A80036; stroke-width: 1.5;" width="10" x="946.5" y="130.4883"/><text fill="#000000" font-family="sans-serif" font-size="14" lengthAdjust="spacingAndGlyphs" textLength="59" x="961.5" y="127.5352">jaxb-api</text><!--entity xz--><rect fill="#FEFECE" filter="url(#fm3ty1o1u9e0f)" height="36.4883" style="stroke: #A80036; stroke-width: 1.5;" width="37" x="658.5" y="8"/><rect fill="#FEFECE" height="5" style="stroke: #A80036; stroke-width: 1.5;" width="10" x="653.5" y="13"/><rect fill="#FEFECE" height="5" style="stroke: #A80036; stroke-width: 1.5;" width="10" x="653.5" y="34.4883"/><text fill="#000000" font-family="sans-serif" font-size="14" lengthAdjust="spacingAndGlyphs" textLength="17" x="668.5" y="31.5352">xz</text><!--link fun-io-api to fun-io-commons-compress--><path d="M377.6878,142.2094 C321.6437,159.2895 242.1009,183.5312 188.1801,199.9642 " fill="none" id="fun-io-api-fun-io-commons-compress" style="stroke: #A80036; stroke-width: 1.0;"/><polygon fill="none" points="376.0095,135.4031,397.1815,136.2685,380.0909,148.795,376.0095,135.4031" style="stroke: #A80036; stroke-width: 1.0;"/><!--link fun-io-api to fun-io-jackson--><path d="M477.1662,154.1611 C492.7962,169.3175 510.8732,186.8467 524.1258,199.6977 " fill="none" id="fun-io-api-fun-io-jackson" style="stroke: #A80036; stroke-width: 1.0;"/><polygon fill="none" points="472.1061,159.0051,462.6211,140.0569,481.8522,148.9545,472.1061,159.0051" style="stroke: #A80036; stroke-width: 1.0;"/><!--link fun-io-api to fun-io-jaxb--><path d="M510.2398,138.9863 C571.6356,154.746 665.5078,178.8815 747,200 C752.7524,201.4907 758.7735,203.0552 764.7601,204.6135 " fill="none" id="fun-io-api-fun-io-jaxb" style="stroke: #A80036; stroke-width: 1.0;"/><polygon fill="none" points="508.3608,145.731,490.7285,133.9793,511.8408,132.1704,508.3608,145.731" style="stroke: #A80036; stroke-width: 1.0;"/><!--link fun-io-api to fun-io-bios--><path d="M404.905,152.5132 C385.0201,168.0331 361.5154,186.3782 344.4498,199.6977 " fill="none" id="fun-io-api-fun-io-bios" style="stroke: #A80036; stroke-width: 1.0;"/><polygon fill="none" points="400.7914,146.8441,420.8646,140.0569,409.4052,157.8805,400.7914,146.8441" style="stroke: #A80036; stroke-width: 1.0;"/><!--link fun-io-api to fun-io-xz--><path d="M508.153,147.5547 C549.8417,164.161 603.1429,185.393 640.2808,200.1865 " fill="none" id="fun-io-api-fun-io-xz" style="stroke: #A80036; stroke-width: 1.0;"/><polygon fill="none" points="505.32,153.9612,489.3303,140.0569,510.5009,140.9551,505.32,153.9612" style="stroke: #A80036; stroke-width: 1.0;"/><!--link fun-io-api to fun-io-scala-api--><path d="M433.1991,144.978 C422.272,168.0825 404.7856,204.6708 389,236 C378.6054,256.6299 366.2086,280.0604 357.7881,295.8102 " fill="none" id="fun-io-api-fun-io-scala-api" style="stroke: #A80036; stroke-width: 1.0;"/><polygon fill="#A80036" points="435.4283,140.2592,427.9673,146.6883,433.2926,144.7801,435.2008,150.1054,435.4283,140.2592" style="stroke: #A80036; stroke-width: 1.0;"/><!--link fun-io-api to fun-io-delta--><path d="M446.0175,145.2527 C448.5226,168.652 453.7779,205.5379 464,236 C471.2139,257.4974 483.5808,280.3938 492.6585,295.7782 " fill="none" id="fun-io-api-fun-io-delta" style="stroke: #A80036; stroke-width: 1.0;"/><polygon fill="#A80036" points="445.4954,140.1837,442.4388,149.5463,446.0078,145.1574,450.3967,148.7264,445.4954,140.1837" style="stroke: #A80036; stroke-width: 1.0;"/><!--link commons-compress to fun-io-commons-compress--><path d="M129,49.5021 C129,88.2919 129,164.8938 129,199.8452 " fill="none" id="commons-compress-fun-io-commons-compress" style="stroke: #A80036; stroke-width: 1.0;"/><polygon fill="#A80036" points="129,44.0629,125,53.0629,129,49.0629,133,53.0629,129,44.0629" style="stroke: #A80036; stroke-width: 1.0;"/><!--link jackson-databind to fun-io-jackson--><path d="M543.8776,49.5021 C543.6756,88.2919 543.2766,164.8938 543.0946,199.8452 " fill="none" id="jackson-databind-fun-io-jackson" style="stroke: #A80036; stroke-width: 1.0;"/><polygon fill="#A80036" points="543.9059,44.0629,539.8589,53.0419,543.8798,49.0628,547.8588,53.0837,543.9059,44.0629" style="stroke: #A80036; stroke-width: 1.0;"/><!--link activation-api to fun-io-jaxb--><path d="M791.3581,49.0271 C796.9926,87.6633 808.2345,164.7506 813.3524,199.8452 " fill="none" id="activation-api-fun-io-jaxb" style="stroke: #A80036; stroke-width: 1.0;"/><polygon fill="#A80036" points="790.6342,44.0629,787.9749,53.5459,791.3558,49.0106,795.8911,52.3914,790.6342,44.0629" style="stroke: #A80036; stroke-width: 1.0;"/><!--link jaxb-runtime to fun-io-jaxb--><path d="M922.785,48.556 C898.5363,87.0333 849.6485,164.6073 827.4413,199.8452 " fill="none" id="jaxb-runtime-fun-io-jaxb" style="stroke: #A80036; stroke-width: 1.0;"/><polygon fill="#A80036" points="925.6166,44.0629,917.4341,49.5444,922.9508,48.293,924.2022,53.8097,925.6166,44.0629" style="stroke: #A80036; stroke-width: 1.0;"/><!--link jaxb-api to fun-io-jaxb--><path d="M953.5996,142.5168 C922.5613,159.5435 878.8387,183.5285 849.0656,199.8612 " fill="none" id="jaxb-api-fun-io-jaxb" style="stroke: #A80036; stroke-width: 1.0;"/><polygon fill="#A80036" points="958.0838,140.0569,948.2693,140.8787,953.7001,142.4617,952.117,147.8926,958.0838,140.0569" style="stroke: #A80036; stroke-width: 1.0;"/><!--link xz to fun-io-xz--><path d="M677.9793,49.5021 C679.5955,88.2919 682.7872,164.8938 684.2436,199.8452 " fill="none" id="xz-fun-io-xz" style="stroke: #A80036; stroke-width: 1.0;"/><polygon fill="#A80036" points="677.7526,44.0629,674.1307,53.2216,677.9607,49.0586,682.1238,52.8886,677.7526,44.0629" style="stroke: #A80036; stroke-width: 1.0;"/><!--
@startuml

folder global.namespace.fun-io {
    [fun-io-api] <|- - [fun-io-commons-compress]
    [fun-io-api] <|- - [fun-io-jackson]
    [fun-io-api] <|- - [fun-io-jaxb]
    [fun-io-api] <|- - [fun-io-bios]
    [fun-io-api] <|- - [fun-io-xz]
    [fun-io-api] <- - - [fun-io-scala-api]
    [fun-io-api] <- - - [fun-io-delta]
}

[commons-compress] <- - - [fun-io-commons-compress]

[jackson-databind] <- - - [fun-io-jackson]

[activation-api] <- - - [fun-io-jaxb]
[jaxb-runtime] <- - - [fun-io-jaxb]
[jaxb-api] <- - [fun-io-jaxb]

[xz] <- - - [fun-io-xz]

@enduml

PlantUML version 1.2018.01(Sun Jan 28 22:08:22 GST 2018)
(GPL source distribution)
Java Runtime: OpenJDK Runtime Environment
JVM: OpenJDK 64-Bit Server VM
Java Version: 1.8.0_152-release-1136-b27
Operating System: Mac OS X
OS Version: 10.13.4
Default Encoding: UTF-8
Language: en
Country: AE
--></g></svg>