<?xml version="1.0" encoding="UTF-8" standalone="no"?><svg xmlns="http://www.w3.org/2000/svg" xmlns:xlink="http://www.w3.org/1999/xlink" contentScriptType="application/ecmascript" contentStyleType="text/css" height="436px" preserveAspectRatio="none" style="width:1142px;height:436px;" version="1.1" viewBox="0 0 1142 436" width="1142px" zoomAndPan="magnify"><defs><filter height="300%" id="f1skjrndavgje0" width="300%" x="-1" y="-1"><feGaussianBlur result="blurOut" stdDeviation="2.0"/><feColorMatrix in="blurOut" result="blurOut2" type="matrix" values="0 0 0 0 0 0 0 0 0 0 0 0 0 0 0 0 0 0 .4 0"/><feOffset dx="4.0" dy="4.0" in="blurOut2" result="blurOut3"/><feBlend in="SourceGraphic" in2="blurOut3" mode="normal"/></filter><filter height="1" id="b1skjrndavgje00" width="1" x="0" y="0"><feFlood flood-color="#7FFF00" result="flood"/><feComposite in="SourceGraphic" in2="flood" operator="over"/></filter><filter height="1" id="b1skjrndavgje01" width="1" x="0" y="0"><feFlood flood-color="#FFFACD" result="flood"/><feComposite in="SourceGraphic" in2="flood" operator="over"/></filter><filter height="1" id="b1skjrndavgje02" width="1" x="0" y="0"><feFlood flood-color="#00FFFF" result="flood"/><feComposite in="SourceGraphic" in2="flood" operator="over"/></filter></defs><g><!--cluster global.namespace.fun-io--><polygon fill="#FFFFFF" filter="url(#f1skjrndavgje0)" points="14,77,197,77,204,99.4883,975,99.4883,975,340,14,340,14,77" style="stroke: #000000; stroke-width: 1.5;"/><line style="stroke: #000000; stroke-width: 1.5;" x1="14" x2="204" y1="99.4883" y2="99.4883"/><text fill="#000000" font-family="sans-serif" font-size="14" font-weight="bold" lengthAdjust="spacingAndGlyphs" textLength="177" x="18" y="92.5352">global.namespace.fun-io</text><!--entity fun-io-api--><rect fill="#7FFF00" filter="url(#f1skjrndavgje0)" height="36.4883" style="stroke: #A80036; stroke-width: 1.5;" width="93" x="369.5" y="104"/><rect fill="#7FFF00" height="5" style="stroke: #A80036; stroke-width: 1.5;" width="10" x="364.5" y="109"/><rect fill="#7FFF00" height="5" style="stroke: #A80036; stroke-width: 1.5;" width="10" x="364.5" y="130.4883"/><text fill="#000000" font-family="sans-serif" font-size="14" lengthAdjust="spacingAndGlyphs" textLength="73" x="379.5" y="127.5352">fun-io-api</text><!--entity fun-io-scala-api--><rect fill="#7FFF00" filter="url(#f1skjrndavgje0)" height="36.4883" style="stroke: #A80036; stroke-width: 1.5;" width="135" x="204.5" y="296"/><rect fill="#7FFF00" height="5" style="stroke: #A80036; stroke-width: 1.5;" width="10" x="199.5" y="301"/><rect fill="#7FFF00" height="5" style="stroke: #A80036; stroke-width: 1.5;" width="10" x="199.5" y="322.4883"/><text fill="#000000" font-family="sans-serif" font-size="14" lengthAdjust="spacingAndGlyphs" textLength="115" x="214.5" y="319.5352">fun-io-scala-api</text><!--entity fun-io-delta--><rect fill="#00FFFF" filter="url(#f1skjrndavgje0)" height="36.4883" style="stroke: #A80036; stroke-width: 1.5;" width="106" x="414" y="296"/><rect fill="#00FFFF" height="5" style="stroke: #A80036; stroke-width: 1.5;" width="10" x="409" y="301"/><rect fill="#00FFFF" height="5" style="stroke: #A80036; stroke-width: 1.5;" width="10" x="409" y="322.4883"/><text fill="#000000" font-family="sans-serif" font-size="14" lengthAdjust="spacingAndGlyphs" textLength="86" x="424" y="319.5352">fun-io-delta</text><!--entity fun-io-bios--><rect fill="#FFFACD" filter="url(#f1skjrndavgje0)" height="36.4883" style="stroke: #A80036; stroke-width: 1.5;" width="101" x="308.5" y="200"/><rect fill="#FFFACD" height="5" style="stroke: #A80036; stroke-width: 1.5;" width="10" x="303.5" y="205"/><rect fill="#FFFACD" height="5" style="stroke: #A80036; stroke-width: 1.5;" width="10" x="303.5" y="226.4883"/><text fill="#000000" font-family="sans-serif" font-size="14" lengthAdjust="spacingAndGlyphs" textLength="81" x="318.5" y="223.5352">fun-io-bios</text><!--entity fun-io-commons-compress--><rect fill="#FFFACD" filter="url(#f1skjrndavgje0)" height="36.4883" style="stroke: #A80036; stroke-width: 1.5;" width="213" x="22.5" y="200"/><rect fill="#FFFACD" height="5" style="stroke: #A80036; stroke-width: 1.5;" width="10" x="17.5" y="205"/><rect fill="#FFFACD" height="5" style="stroke: #A80036; stroke-width: 1.5;" width="10" x="17.5" y="226.4883"/><text fill="#000000" font-family="sans-serif" font-size="14" lengthAdjust="spacingAndGlyphs" textLength="193" x="32.5" y="223.5352">fun-io-commons-compress</text><!--entity fun-io-jackson--><rect fill="#FFFACD" filter="url(#f1skjrndavgje0)" height="36.4883" style="stroke: #A80036; stroke-width: 1.5;" width="124" x="445" y="200"/><rect fill="#FFFACD" height="5" style="stroke: #A80036; stroke-width: 1.5;" width="10" x="440" y="205"/><rect fill="#FFFACD" height="5" style="stroke: #A80036; stroke-width: 1.5;" width="10" x="440" y="226.4883"/><text fill="#000000" font-family="sans-serif" font-size="14" lengthAdjust="spacingAndGlyphs" textLength="104" x="455" y="223.5352">fun-io-jackson</text><!--entity fun-io-jaxb--><rect fill="#FFFACD" filter="url(#f1skjrndavgje0)" height="36.4883" style="stroke: #A80036; stroke-width: 1.5;" width="102" x="865" y="200"/><rect fill="#FFFACD" height="5" style="stroke: #A80036; stroke-width: 1.5;" width="10" x="860" y="205"/><rect fill="#FFFACD" height="5" style="stroke: #A80036; stroke-width: 1.5;" width="10" x="860" y="226.4883"/><text fill="#000000" font-family="sans-serif" font-size="14" lengthAdjust="spacingAndGlyphs" textLength="82" x="875" y="223.5352">fun-io-jaxb</text><!--entity fun-io-xz--><rect fill="#FFFACD" filter="url(#f1skjrndavgje0)" height="36.4883" style="stroke: #A80036; stroke-width: 1.5;" width="89" x="604.5" y="200"/><rect fill="#FFFACD" height="5" style="stroke: #A80036; stroke-width: 1.5;" width="10" x="599.5" y="205"/><rect fill="#FFFACD" height="5" style="stroke: #A80036; stroke-width: 1.5;" width="10" x="599.5" y="226.4883"/><text fill="#000000" font-family="sans-serif" font-size="14" lengthAdjust="spacingAndGlyphs" textLength="69" x="614.5" y="223.5352">fun-io-xz</text><!--entity fun-io-zstd--><rect fill="#FFFACD" filter="url(#f1skjrndavgje0)" height="36.4883" style="stroke: #A80036; stroke-width: 1.5;" width="101" x="728.5" y="200"/><rect fill="#FFFACD" height="5" style="stroke: #A80036; stroke-width: 1.5;" width="10" x="723.5" y="205"/><rect fill="#FFFACD" height="5" style="stroke: #A80036; stroke-width: 1.5;" width="10" x="723.5" y="226.4883"/><text fill="#000000" font-family="sans-serif" font-size="14" lengthAdjust="spacingAndGlyphs" textLength="81" x="738.5" y="223.5352">fun-io-zstd</text><!--entity commons-compress--><rect fill="#FFFACD" filter="url(#f1skjrndavgje0)" height="36.4883" style="stroke: #A80036; stroke-width: 1.5;" width="161" x="48.5" y="8"/><rect fill="#FFFACD" height="5" style="stroke: #A80036; stroke-width: 1.5;" width="10" x="43.5" y="13"/><rect fill="#FFFACD" height="5" style="stroke: #A80036; stroke-width: 1.5;" width="10" x="43.5" y="34.4883"/><text fill="#000000" font-family="sans-serif" font-size="14" lengthAdjust="spacingAndGlyphs" textLength="141" x="58.5" y="31.5352">commons-compress</text><!--entity jackson-databind--><rect fill="#FFFACD" filter="url(#f1skjrndavgje0)" height="36.4883" style="stroke: #A80036; stroke-width: 1.5;" width="141" x="445.5" y="8"/><rect fill="#FFFACD" height="5" style="stroke: #A80036; stroke-width: 1.5;" width="10" x="440.5" y="13"/><rect fill="#FFFACD" height="5" style="stroke: #A80036; stroke-width: 1.5;" width="10" x="440.5" y="34.4883"/><text fill="#000000" font-family="sans-serif" font-size="14" lengthAdjust="spacingAndGlyphs" textLength="121" x="455.5" y="31.5352">jackson-databind</text><!--entity activation-api--><rect fill="#7FFF00" filter="url(#f1skjrndavgje0)" height="36.4883" style="stroke: #A80036; stroke-width: 1.5;" width="115" x="831.5" y="8"/><rect fill="#7FFF00" height="5" style="stroke: #A80036; stroke-width: 1.5;" width="10" x="826.5" y="13"/><rect fill="#7FFF00" height="5" style="stroke: #A80036; stroke-width: 1.5;" width="10" x="826.5" y="34.4883"/><text fill="#000000" font-family="sans-serif" font-size="14" lengthAdjust="spacingAndGlyphs" textLength="95" x="841.5" y="31.5352">activation-api</text><!--entity jaxb-runtime--><rect fill="#FFFACD" filter="url(#f1skjrndavgje0)" height="36.4883" style="stroke: #A80036; stroke-width: 1.5;" width="112" x="982" y="8"/><rect fill="#FFFACD" height="5" style="stroke: #A80036; stroke-width: 1.5;" width="10" x="977" y="13"/><rect fill="#FFFACD" height="5" style="stroke: #A80036; stroke-width: 1.5;" width="10" x="977" y="34.4883"/><text fill="#000000" font-family="sans-serif" font-size="14" lengthAdjust="spacingAndGlyphs" textLength="92" x="992" y="31.5352">jaxb-runtime</text><!--entity jaxb-api--><rect fill="#7FFF00" filter="url(#f1skjrndavgje0)" height="36.4883" style="stroke: #A80036; stroke-width: 1.5;" width="79" x="1052.5" y="104"/><rect fill="#7FFF00" height="5" style="stroke: #A80036; stroke-width: 1.5;" width="10" x="1047.5" y="109"/><rect fill="#7FFF00" height="5" style="stroke: #A80036; stroke-width: 1.5;" width="10" x="1047.5" y="130.4883"/><text fill="#000000" font-family="sans-serif" font-size="14" lengthAdjust="spacingAndGlyphs" textLength="59" x="1062.5" y="127.5352">jaxb-api</text><!--entity xz--><rect fill="#FFFACD" filter="url(#f1skjrndavgje0)" height="36.4883" style="stroke: #A80036; stroke-width: 1.5;" width="37" x="630.5" y="8"/><rect fill="#FFFACD" height="5" style="stroke: #A80036; stroke-width: 1.5;" width="10" x="625.5" y="13"/><rect fill="#FFFACD" height="5" style="stroke: #A80036; stroke-width: 1.5;" width="10" x="625.5" y="34.4883"/><text fill="#000000" font-family="sans-serif" font-size="14" lengthAdjust="spacingAndGlyphs" textLength="17" x="640.5" y="31.5352">xz</text><!--entity zstd-jni--><rect fill="#FFFACD" filter="url(#f1skjrndavgje0)" height="36.4883" style="stroke: #A80036; stroke-width: 1.5;" width="74" x="722" y="8"/><rect fill="#FFFACD" height="5" style="stroke: #A80036; stroke-width: 1.5;" width="10" x="717" y="13"/><rect fill="#FFFACD" height="5" style="stroke: #A80036; stroke-width: 1.5;" width="10" x="717" y="34.4883"/><text fill="#000000" font-family="sans-serif" font-size="14" lengthAdjust="spacingAndGlyphs" textLength="54" x="732" y="31.5352">zstd-jni</text><!--link fun-io-api to fun-io-bios--><path d="M394.9149,157.5117 C386.4022,171.849 376.9409,187.7838 369.867,199.6977 " fill="none" id="fun-io-api-fun-io-bios" style="stroke: #A80036; stroke-width: 1.0;"/><polygon fill="none" points="389.0489,153.6802,405.2787,140.0569,401.0869,160.8278,389.0489,153.6802" style="stroke: #A80036; stroke-width: 1.0;"/><!--link fun-io-api to fun-io-commons-compress--><path d="M350.1304,144.033 C299.4276,160.9929 230.2269,184.1401 182.82,199.9975 " fill="none" id="fun-io-api-fun-io-commons-compress" style="stroke: #A80036; stroke-width: 1.0;"/><polygon fill="none" points="348.0621,137.3437,369.2497,137.6377,352.5032,150.6206,348.0621,137.3437" style="stroke: #A80036; stroke-width: 1.0;"/><!--link fun-io-api to fun-io-jackson--><path d="M446.9358,154.6355 C461.1987,169.6822 477.5962,186.9806 489.6509,199.6977 " fill="none" id="fun-io-api-fun-io-jackson" style="stroke: #A80036; stroke-width: 1.0;"/><polygon fill="none" points="441.7952,159.3877,433.1164,140.0569,451.9558,149.7563,441.7952,159.3877" style="stroke: #A80036; stroke-width: 1.0;"/><!--link fun-io-api to fun-io-jaxb--><path d="M482.6568,132.4459 C567.618,146.1305 718.8528,171.7325 847,200 C852.8029,201.28 858.8555,202.7129 864.8602,204.1962 " fill="none" id="fun-io-api-fun-io-jaxb" style="stroke: #A80036; stroke-width: 1.0;"/><polygon fill="none" points="481.4346,139.3395,462.7908,129.2692,483.6453,125.5151,481.4346,139.3395" style="stroke: #A80036; stroke-width: 1.0;"/><!--link fun-io-api to fun-io-scala-api--><path d="M364.4968,141.8548 C338.401,154.5652 308.5925,173.67 291,200 C271.4926,229.1958 269.7768,271.7477 270.6439,295.7522 " fill="none" id="fun-io-api-fun-io-scala-api" style="stroke: #A80036; stroke-width: 1.0;"/><polygon fill="#A80036" points="369.3225,139.5556,359.4771,139.8158,364.8087,141.7063,362.9182,147.0379,369.3225,139.5556" style="stroke: #A80036; stroke-width: 1.0;"/><!--link fun-io-api to fun-io-xz--><path d="M478.4467,147.7291 C518.3934,164.1878 569.2339,185.135 604.9755,199.8612 " fill="none" id="fun-io-api-fun-io-xz" style="stroke: #A80036; stroke-width: 1.0;"/><polygon fill="none" points="475.6508,154.1481,459.8255,140.0569,480.9841,141.2037,475.6508,154.1481" style="stroke: #A80036; stroke-width: 1.0;"/><!--link fun-io-api to fun-io-zstd--><path d="M482.1714,139.4905 C541.9598,155.2952 632.3757,179.1994 711,200 C716.6669,201.4992 722.5993,203.069 728.4985,204.6303 " fill="none" id="fun-io-api-fun-io-zstd" style="stroke: #A80036; stroke-width: 1.0;"/><polygon fill="none" points="480.2977,146.2357,462.7508,134.3569,483.8756,132.7006,480.2977,146.2357" style="stroke: #A80036; stroke-width: 1.0;"/><!--link fun-io-bios to fun-io-delta--><path d="M383.4947,239.7731 C402.4807,256.6495 428.4888,279.7678 446.4099,295.6977 " fill="none" id="fun-io-bios-fun-io-delta" style="stroke: #A80036; stroke-width: 1.0;"/><polygon fill="#A80036" points="379.314,236.0569,383.3833,245.0258,383.0511,239.3787,388.6982,239.0465,379.314,236.0569" style="stroke: #A80036; stroke-width: 1.0;"/><!--link fun-io-jackson to fun-io-delta--><path d="M497.3912,241.0611 C490.4123,257.8106 481.0961,280.1694 474.626,295.6977 " fill="none" id="fun-io-jackson-fun-io-delta" style="stroke: #A80036; stroke-width: 1.0;"/><polygon fill="#A80036" points="499.4763,236.0569,492.3224,242.8261,497.5532,240.6723,499.707,245.9031,499.4763,236.0569" style="stroke: #A80036; stroke-width: 1.0;"/><!--link commons-compress to fun-io-commons-compress--><path d="M129,49.5021 C129,88.2919 129,164.8938 129,199.8452 " fill="none" id="commons-compress-fun-io-commons-compress" style="stroke: #A80036; stroke-width: 1.0;"/><polygon fill="#A80036" points="129,44.0629,125,53.0629,129,49.0629,133,53.0629,129,44.0629" style="stroke: #A80036; stroke-width: 1.0;"/><!--link jackson-databind to fun-io-jackson--><path d="M514.8983,49.5021 C513.0801,88.2919 509.4894,164.8938 507.851,199.8452 " fill="none" id="jackson-databind-fun-io-jackson" style="stroke: #A80036; stroke-width: 1.0;"/><polygon fill="#A80036" points="515.1533,44.0629,510.736,52.8656,514.919,49.0574,518.7272,53.2404,515.1533,44.0629" style="stroke: #A80036; stroke-width: 1.0;"/><!--link activation-api to fun-io-jaxb--><path d="M892.2382,49.0271 C897.6714,87.6633 908.5118,164.7506 913.447,199.8452 " fill="none" id="activation-api-fun-io-jaxb" style="stroke: #A80036; stroke-width: 1.0;"/><polygon fill="#A80036" points="891.5401,44.0629,888.8324,53.5322,892.2364,49.0142,896.7544,52.4182,891.5401,44.0629" style="stroke: #A80036; stroke-width: 1.0;"/><!--link jaxb-runtime to fun-io-jaxb--><path d="M1023.6676,48.556 C999.2184,87.0333 949.9266,164.6073 927.5358,199.8452 " fill="none" id="jaxb-runtime-fun-io-jaxb" style="stroke: #A80036; stroke-width: 1.0;"/><polygon fill="#A80036" points="1026.5225,44.0629,1018.3196,49.5139,1023.841,48.283,1025.0718,53.8043,1026.5225,44.0629" style="stroke: #A80036; stroke-width: 1.0;"/><!--link jaxb-api to fun-io-jaxb--><path d="M1054.3859,142.5168 C1023.1702,159.5435 979.1977,183.5285 949.2545,199.8612 " fill="none" id="jaxb-api-fun-io-jaxb" style="stroke: #A80036; stroke-width: 1.0;"/><polygon fill="#A80036" points="1058.8957,140.0569,1049.0793,140.8553,1054.5063,142.4513,1052.9103,147.8784,1058.8957,140.0569" style="stroke: #A80036; stroke-width: 1.0;"/><!--link xz to fun-io-xz--><path d="M649,49.5021 C649,88.2919 649,164.8938 649,199.8452 " fill="none" id="xz-fun-io-xz" style="stroke: #A80036; stroke-width: 1.0;"/><polygon fill="#A80036" points="649,44.0629,645,53.0629,649,49.0629,653,53.0629,649,44.0629" style="stroke: #A80036; stroke-width: 1.0;"/><!--link zstd-jni to fun-io-zstd--><path d="M761.4481,49.5021 C765.4887,88.2919 773.4681,164.8938 777.1089,199.8452 " fill="none" id="zstd-jni-fun-io-zstd" style="stroke: #A80036; stroke-width: 1.0;"/><polygon fill="#A80036" points="760.8816,44.0629,757.8358,53.429,761.3998,49.036,765.7927,52.5999,760.8816,44.0629" style="stroke: #A80036; stroke-width: 1.0;"/><rect fill="#DDDDDD" height="59.4648" rx="5" ry="5" style="stroke: #000000; stroke-width: 1.0;" width="283" x="433" y="366"/><ellipse cx="444.5" cy="379.9883" fill="#000000" rx="2.5" ry="2.5" style="stroke: #000000; stroke-width: 0.0;"/><text fill="#000000" font-family="sans-serif" font-size="14" lengthAdjust="spacingAndGlyphs" textLength="72" x="451" y="384.5352">APIs are in</text><text fill="#000000" filter="url(#b1skjrndavgje00)" font-family="sans-serif" font-size="14" lengthAdjust="spacingAndGlyphs" textLength="76" x="527" y="384.5352">Chartreuse</text><ellipse cx="444.5" cy="396.4766" fill="#000000" rx="2.5" ry="2.5" style="stroke: #000000; stroke-width: 0.0;"/><text fill="#000000" font-family="sans-serif" font-size="14" lengthAdjust="spacingAndGlyphs" textLength="158" x="451" y="401.0234">Implementations are in</text><text fill="#000000" filter="url(#b1skjrndavgje01)" font-family="sans-serif" font-size="14" lengthAdjust="spacingAndGlyphs" textLength="97" x="613" y="401.0234">LemonChiffon</text><ellipse cx="444.5" cy="412.9648" fill="#000000" rx="2.5" ry="2.5" style="stroke: #000000; stroke-width: 0.0;"/><text fill="#000000" font-family="sans-serif" font-size="14" lengthAdjust="spacingAndGlyphs" textLength="128" x="451" y="417.5117">Applications are in</text><text fill="#000000" filter="url(#b1skjrndavgje02)" font-family="sans-serif" font-size="14" lengthAdjust="spacingAndGlyphs" textLength="36" x="583" y="417.5117">Aqua</text><!--
@startuml

folder global.namespace.fun-io {
    [fun-io-api] #Chartreuse
    [fun-io-scala-api] #Chartreuse
    [fun-io-delta] #Aqua

    [fun-io-api] <|- - [fun-io-bios]
    [fun-io-api] <|- - [fun-io-commons-compress]
    [fun-io-api] <|- - [fun-io-jackson]
    [fun-io-api] <|- - [fun-io-jaxb]
    [fun-io-api] <- - - [fun-io-scala-api]
    [fun-io-api] <|- - [fun-io-xz]
    [fun-io-api] <|- - [fun-io-zstd]

    [fun-io-bios] <- - [fun-io-delta]
    [fun-io-jackson] <- - [fun-io-delta]
}

[commons-compress] <- - - [fun-io-commons-compress]

[jackson-databind] <- - - [fun-io-jackson]

[activation-api] #Chartreuse
[activation-api] <- - - [fun-io-jaxb]
[jaxb-runtime] <- - - [fun-io-jaxb]

[jaxb-api] #Chartreuse
[jaxb-api] <- - [fun-io-jaxb]

[xz] <- - - [fun-io-xz]

[zstd-jni] <- - - [fun-io-zstd]

legend
* APIs are in <back:Chartreuse>Chartreuse</back>
* Implementations are in <back:LemonChiffon>LemonChiffon</back>
* Applications are in <back:Aqua>Aqua</back>
end legend

skinparam componentBackgroundColor LemonChiffon
@enduml

PlantUML version 1.2018.05(Sun May 06 00:00:17 GST 2018)
(GPL source distribution)
Java Runtime: Java(TM) SE Runtime Environment
JVM: Java HotSpot(TM) 64-Bit Server VM
Java Version: 10.0.1+10
Operating System: Mac OS X
OS Version: 10.13.4
Default Encoding: UTF-8
Language: en
Country: AE
--></g></svg>