<?xml version="1.0" encoding="UTF-8" standalone="no"?><svg xmlns="http://www.w3.org/2000/svg" xmlns:xlink="http://www.w3.org/1999/xlink" contentScriptType="application/ecmascript" contentStyleType="text/css" height="436px" preserveAspectRatio="none" style="width:1004px;height:436px;" version="1.1" viewBox="0 0 1004 436" width="1004px" zoomAndPan="magnify"><defs><filter height="300%" id="fp8aawcs7jwqk" width="300%" x="-1" y="-1"><feGaussianBlur result="blurOut" stdDeviation="2.0"/><feColorMatrix in="blurOut" result="blurOut2" type="matrix" values="0 0 0 0 0 0 0 0 0 0 0 0 0 0 0 0 0 0 .4 0"/><feOffset dx="4.0" dy="4.0" in="blurOut2" result="blurOut3"/><feBlend in="SourceGraphic" in2="blurOut3" mode="normal"/></filter><filter height="1" id="bp8aawcs7jwqk0" width="1" x="0" y="0"><feFlood flood-color="#7FFF00" result="flood"/><feComposite in="SourceGraphic" in2="flood" operator="over"/></filter><filter height="1" id="bp8aawcs7jwqk1" width="1" x="0" y="0"><feFlood flood-color="#FFFACD" result="flood"/><feComposite in="SourceGraphic" in2="flood" operator="over"/></filter><filter height="1" id="bp8aawcs7jwqk2" width="1" x="0" y="0"><feFlood flood-color="#00FFFF" result="flood"/><feComposite in="SourceGraphic" in2="flood" operator="over"/></filter></defs><g><!--cluster global.namespace.fun-io--><polygon fill="#FFFFFF" filter="url(#fp8aawcs7jwqk)" points="14,77,197,77,204,99.4883,839,99.4883,839,340,14,340,14,77" style="stroke: #000000; stroke-width: 1.5;"/><line style="stroke: #000000; stroke-width: 1.5;" x1="14" x2="204" y1="99.4883" y2="99.4883"/><text fill="#000000" font-family="sans-serif" font-size="14" font-weight="bold" lengthAdjust="spacingAndGlyphs" textLength="177" x="18" y="92.5352">global.namespace.fun-io</text><!--entity fun-io-api--><rect fill="#7FFF00" filter="url(#fp8aawcs7jwqk)" height="36.4883" style="stroke: #A80036; stroke-width: 1.5;" width="93" x="336.5" y="104"/><rect fill="#7FFF00" height="5" style="stroke: #A80036; stroke-width: 1.5;" width="10" x="331.5" y="109"/><rect fill="#7FFF00" height="5" style="stroke: #A80036; stroke-width: 1.5;" width="10" x="331.5" y="130.4883"/><text fill="#000000" font-family="sans-serif" font-size="14" lengthAdjust="spacingAndGlyphs" textLength="73" x="346.5" y="127.5352">fun-io-api</text><!--entity fun-io-scala-api--><rect fill="#7FFF00" filter="url(#fp8aawcs7jwqk)" height="36.4883" style="stroke: #A80036; stroke-width: 1.5;" width="135" x="204.5" y="296"/><rect fill="#7FFF00" height="5" style="stroke: #A80036; stroke-width: 1.5;" width="10" x="199.5" y="301"/><rect fill="#7FFF00" height="5" style="stroke: #A80036; stroke-width: 1.5;" width="10" x="199.5" y="322.4883"/><text fill="#000000" font-family="sans-serif" font-size="14" lengthAdjust="spacingAndGlyphs" textLength="115" x="214.5" y="319.5352">fun-io-scala-api</text><!--entity fun-io-delta--><rect fill="#00FFFF" filter="url(#fp8aawcs7jwqk)" height="36.4883" style="stroke: #A80036; stroke-width: 1.5;" width="106" x="414" y="296"/><rect fill="#00FFFF" height="5" style="stroke: #A80036; stroke-width: 1.5;" width="10" x="409" y="301"/><rect fill="#00FFFF" height="5" style="stroke: #A80036; stroke-width: 1.5;" width="10" x="409" y="322.4883"/><text fill="#000000" font-family="sans-serif" font-size="14" lengthAdjust="spacingAndGlyphs" textLength="86" x="424" y="319.5352">fun-io-delta</text><!--entity fun-io-bios--><rect fill="#FFFACD" filter="url(#fp8aawcs7jwqk)" height="36.4883" style="stroke: #A80036; stroke-width: 1.5;" width="101" x="308.5" y="200"/><rect fill="#FFFACD" height="5" style="stroke: #A80036; stroke-width: 1.5;" width="10" x="303.5" y="205"/><rect fill="#FFFACD" height="5" style="stroke: #A80036; stroke-width: 1.5;" width="10" x="303.5" y="226.4883"/><text fill="#000000" font-family="sans-serif" font-size="14" lengthAdjust="spacingAndGlyphs" textLength="81" x="318.5" y="223.5352">fun-io-bios</text><!--entity fun-io-commons-compress--><rect fill="#FFFACD" filter="url(#fp8aawcs7jwqk)" height="36.4883" style="stroke: #A80036; stroke-width: 1.5;" width="213" x="22.5" y="200"/><rect fill="#FFFACD" height="5" style="stroke: #A80036; stroke-width: 1.5;" width="10" x="17.5" y="205"/><rect fill="#FFFACD" height="5" style="stroke: #A80036; stroke-width: 1.5;" width="10" x="17.5" y="226.4883"/><text fill="#000000" font-family="sans-serif" font-size="14" lengthAdjust="spacingAndGlyphs" textLength="193" x="32.5" y="223.5352">fun-io-commons-compress</text><!--entity fun-io-jackson--><rect fill="#FFFACD" filter="url(#fp8aawcs7jwqk)" height="36.4883" style="stroke: #A80036; stroke-width: 1.5;" width="124" x="445" y="200"/><rect fill="#FFFACD" height="5" style="stroke: #A80036; stroke-width: 1.5;" width="10" x="440" y="205"/><rect fill="#FFFACD" height="5" style="stroke: #A80036; stroke-width: 1.5;" width="10" x="440" y="226.4883"/><text fill="#000000" font-family="sans-serif" font-size="14" lengthAdjust="spacingAndGlyphs" textLength="104" x="455" y="223.5352">fun-io-jackson</text><!--entity fun-io-jaxb--><rect fill="#FFFACD" filter="url(#fp8aawcs7jwqk)" height="36.4883" style="stroke: #A80036; stroke-width: 1.5;" width="102" x="729" y="200"/><rect fill="#FFFACD" height="5" style="stroke: #A80036; stroke-width: 1.5;" width="10" x="724" y="205"/><rect fill="#FFFACD" height="5" style="stroke: #A80036; stroke-width: 1.5;" width="10" x="724" y="226.4883"/><text fill="#000000" font-family="sans-serif" font-size="14" lengthAdjust="spacingAndGlyphs" textLength="82" x="739" y="223.5352">fun-io-jaxb</text><!--entity fun-io-xz--><rect fill="#FFFACD" filter="url(#fp8aawcs7jwqk)" height="36.4883" style="stroke: #A80036; stroke-width: 1.5;" width="89" x="604.5" y="200"/><rect fill="#FFFACD" height="5" style="stroke: #A80036; stroke-width: 1.5;" width="10" x="599.5" y="205"/><rect fill="#FFFACD" height="5" style="stroke: #A80036; stroke-width: 1.5;" width="10" x="599.5" y="226.4883"/><text fill="#000000" font-family="sans-serif" font-size="14" lengthAdjust="spacingAndGlyphs" textLength="69" x="614.5" y="223.5352">fun-io-xz</text><!--entity commons-compress--><rect fill="#FFFACD" filter="url(#fp8aawcs7jwqk)" height="36.4883" style="stroke: #A80036; stroke-width: 1.5;" width="161" x="48.5" y="8"/><rect fill="#FFFACD" height="5" style="stroke: #A80036; stroke-width: 1.5;" width="10" x="43.5" y="13"/><rect fill="#FFFACD" height="5" style="stroke: #A80036; stroke-width: 1.5;" width="10" x="43.5" y="34.4883"/><text fill="#000000" font-family="sans-serif" font-size="14" lengthAdjust="spacingAndGlyphs" textLength="141" x="58.5" y="31.5352">commons-compress</text><!--entity jackson-databind--><rect fill="#FFFACD" filter="url(#fp8aawcs7jwqk)" height="36.4883" style="stroke: #A80036; stroke-width: 1.5;" width="141" x="436.5" y="8"/><rect fill="#FFFACD" height="5" style="stroke: #A80036; stroke-width: 1.5;" width="10" x="431.5" y="13"/><rect fill="#FFFACD" height="5" style="stroke: #A80036; stroke-width: 1.5;" width="10" x="431.5" y="34.4883"/><text fill="#000000" font-family="sans-serif" font-size="14" lengthAdjust="spacingAndGlyphs" textLength="121" x="446.5" y="31.5352">jackson-databind</text><!--entity activation-api--><rect fill="#7FFF00" filter="url(#fp8aawcs7jwqk)" height="36.4883" style="stroke: #A80036; stroke-width: 1.5;" width="115" x="693.5" y="8"/><rect fill="#7FFF00" height="5" style="stroke: #A80036; stroke-width: 1.5;" width="10" x="688.5" y="13"/><rect fill="#7FFF00" height="5" style="stroke: #A80036; stroke-width: 1.5;" width="10" x="688.5" y="34.4883"/><text fill="#000000" font-family="sans-serif" font-size="14" lengthAdjust="spacingAndGlyphs" textLength="95" x="703.5" y="31.5352">activation-api</text><!--entity jaxb-runtime--><rect fill="#FFFACD" filter="url(#fp8aawcs7jwqk)" height="36.4883" style="stroke: #A80036; stroke-width: 1.5;" width="112" x="844" y="8"/><rect fill="#FFFACD" height="5" style="stroke: #A80036; stroke-width: 1.5;" width="10" x="839" y="13"/><rect fill="#FFFACD" height="5" style="stroke: #A80036; stroke-width: 1.5;" width="10" x="839" y="34.4883"/><text fill="#000000" font-family="sans-serif" font-size="14" lengthAdjust="spacingAndGlyphs" textLength="92" x="854" y="31.5352">jaxb-runtime</text><!--entity jaxb-api--><rect fill="#7FFF00" filter="url(#fp8aawcs7jwqk)" height="36.4883" style="stroke: #A80036; stroke-width: 1.5;" width="79" x="914.5" y="104"/><rect fill="#7FFF00" height="5" style="stroke: #A80036; stroke-width: 1.5;" width="10" x="909.5" y="109"/><rect fill="#7FFF00" height="5" style="stroke: #A80036; stroke-width: 1.5;" width="10" x="909.5" y="130.4883"/><text fill="#000000" font-family="sans-serif" font-size="14" lengthAdjust="spacingAndGlyphs" textLength="59" x="924.5" y="127.5352">jaxb-api</text><!--entity xz--><rect fill="#FFFACD" filter="url(#fp8aawcs7jwqk)" height="36.4883" style="stroke: #A80036; stroke-width: 1.5;" width="37" x="621.5" y="8"/><rect fill="#FFFACD" height="5" style="stroke: #A80036; stroke-width: 1.5;" width="10" x="616.5" y="13"/><rect fill="#FFFACD" height="5" style="stroke: #A80036; stroke-width: 1.5;" width="10" x="616.5" y="34.4883"/><text fill="#000000" font-family="sans-serif" font-size="14" lengthAdjust="spacingAndGlyphs" textLength="17" x="631.5" y="31.5352">xz</text><!--link fun-io-api to fun-io-bios--><path d="M373.5144,159.9422 C370.0933,173.6267 366.3867,188.4531 363.5756,199.6977 " fill="none" id="fun-io-api-fun-io-bios" style="stroke: #A80036; stroke-width: 1.0;"/><polygon fill="none" points="366.844,157.7619,378.4858,140.0569,380.426,161.1575,366.844,157.7619" style="stroke: #A80036; stroke-width: 1.0;"/><!--link fun-io-api to fun-io-commons-compress--><path d="M317.5593,146.7335 C273.642,163.3322 216.7699,184.8271 177.018,199.8515 " fill="none" id="fun-io-api-fun-io-commons-compress" style="stroke: #A80036; stroke-width: 1.0;"/><polygon fill="none" points="315.2293,140.1309,336.4125,139.6079,320.1789,153.2267,315.2293,140.1309" style="stroke: #A80036; stroke-width: 1.0;"/><!--link fun-io-api to fun-io-jackson--><path d="M422.4129,152.5132 C442.4594,168.0331 466.1552,186.3782 483.3595,199.6977 " fill="none" id="fun-io-api-fun-io-jackson" style="stroke: #A80036; stroke-width: 1.0;"/><polygon fill="none" points="417.8527,157.8354,406.3235,140.0569,426.4232,146.7653,417.8527,157.8354" style="stroke: #A80036; stroke-width: 1.0;"/><!--link fun-io-api to fun-io-jaxb--><path d="M449.2146,137.3013 C515.5357,152.7318 620.4803,177.4329 711,200 C716.7659,201.4375 722.7954,202.9687 728.787,204.508 " fill="none" id="fun-io-api-fun-io-jaxb" style="stroke: #A80036; stroke-width: 1.0;"/><polygon fill="none" points="447.4166,144.0701,429.5186,132.7272,450.5837,130.433,447.4166,144.0701" style="stroke: #A80036; stroke-width: 1.0;"/><!--link fun-io-api to fun-io-scala-api--><path d="M347.7397,142.9547 C327.871,156.6527 304.4162,176.3689 291,200 C273.7631,230.3607 271.1801,272.115 271.2939,295.7488 " fill="none" id="fun-io-api-fun-io-scala-api" style="stroke: #A80036; stroke-width: 1.0;"/><polygon fill="#A80036" points="351.9201,140.1238,342.2252,141.8582,347.7801,142.9274,346.7109,148.4823,351.9201,140.1238" style="stroke: #A80036; stroke-width: 1.0;"/><!--link fun-io-api to fun-io-xz--><path d="M448.6212,145.6829 C497.0184,163.1495 561.5914,186.454 604.1904,201.8281 " fill="none" id="fun-io-api-fun-io-xz" style="stroke: #A80036; stroke-width: 1.0;"/><polygon fill="none" points="446.0741,152.2056,429.6381,138.8318,450.8267,139.0369,446.0741,152.2056" style="stroke: #A80036; stroke-width: 1.0;"/><!--link fun-io-bios to fun-io-delta--><path d="M383.4947,239.7731 C402.4807,256.6495 428.4888,279.7678 446.4099,295.6977 " fill="none" id="fun-io-bios-fun-io-delta" style="stroke: #A80036; stroke-width: 1.0;"/><polygon fill="#A80036" points="379.314,236.0569,383.3833,245.0258,383.0511,239.3787,388.6982,239.0465,379.314,236.0569" style="stroke: #A80036; stroke-width: 1.0;"/><!--link fun-io-jackson to fun-io-delta--><path d="M497.3912,241.0611 C490.4123,257.8106 481.0961,280.1694 474.626,295.6977 " fill="none" id="fun-io-jackson-fun-io-delta" style="stroke: #A80036; stroke-width: 1.0;"/><polygon fill="#A80036" points="499.4763,236.0569,492.3224,242.8261,497.5532,240.6723,499.707,245.9031,499.4763,236.0569" style="stroke: #A80036; stroke-width: 1.0;"/><!--link commons-compress to fun-io-commons-compress--><path d="M129,49.5021 C129,88.2919 129,164.8938 129,199.8452 " fill="none" id="commons-compress-fun-io-commons-compress" style="stroke: #A80036; stroke-width: 1.0;"/><polygon fill="#A80036" points="129,44.0629,125,53.0629,129,49.0629,133,53.0629,129,44.0629" style="stroke: #A80036; stroke-width: 1.0;"/><!--link jackson-databind to fun-io-jackson--><path d="M507,49.5021 C507,88.2919 507,164.8938 507,199.8452 " fill="none" id="jackson-databind-fun-io-jackson" style="stroke: #A80036; stroke-width: 1.0;"/><polygon fill="#A80036" points="507,44.0629,503,53.0629,507,49.0629,511,53.0629,507,44.0629" style="stroke: #A80036; stroke-width: 1.0;"/><!--link activation-api to fun-io-jaxb--><path d="M754.4781,49.0271 C760.3137,87.6633 771.9571,164.7506 777.2579,199.8452 " fill="none" id="activation-api-fun-io-jaxb" style="stroke: #A80036; stroke-width: 1.0;"/><polygon fill="#A80036" points="753.7282,44.0629,751.1174,53.5594,754.4751,49.0068,759.0277,52.3644,753.7282,44.0629" style="stroke: #A80036; stroke-width: 1.0;"/><!--link jaxb-runtime to fun-io-jaxb--><path d="M885.9025,48.556 C861.8542,87.0333 813.3704,164.6073 791.3467,199.8452 " fill="none" id="jaxb-runtime-fun-io-jaxb" style="stroke: #A80036; stroke-width: 1.0;"/><polygon fill="#A80036" points="888.7107,44.0629,880.5487,49.5749,886.0607,48.3029,887.3327,53.8149,888.7107,44.0629" style="stroke: #A80036; stroke-width: 1.0;"/><!--link jaxb-api to fun-io-jaxb--><path d="M916.8133,142.5168 C885.9524,159.5435 842.4796,183.5285 812.8767,199.8612 " fill="none" id="jaxb-api-fun-io-jaxb" style="stroke: #A80036; stroke-width: 1.0;"/><polygon fill="#A80036" points="921.2719,140.0569,911.4594,140.9023,916.894,142.4723,915.324,147.9069,921.2719,140.0569" style="stroke: #A80036; stroke-width: 1.0;"/><!--link xz to fun-io-xz--><path d="M641.1017,49.5021 C642.9199,88.2919 646.5106,164.8938 648.149,199.8452 " fill="none" id="xz-fun-io-xz" style="stroke: #A80036; stroke-width: 1.0;"/><polygon fill="#A80036" points="640.8467,44.0629,637.2728,53.2404,641.081,49.0574,645.264,52.8656,640.8467,44.0629" style="stroke: #A80036; stroke-width: 1.0;"/><rect fill="#DDDDDD" height="59.4648" rx="5" ry="5" style="stroke: #000000; stroke-width: 1.0;" width="283" x="364" y="366"/><ellipse cx="375.5" cy="379.9883" fill="#000000" rx="2.5" ry="2.5" style="stroke: #000000; stroke-width: 0.0;"/><text fill="#000000" font-family="sans-serif" font-size="14" lengthAdjust="spacingAndGlyphs" textLength="72" x="382" y="384.5352">APIs are in</text><text fill="#000000" filter="url(#bp8aawcs7jwqk0)" font-family="sans-serif" font-size="14" lengthAdjust="spacingAndGlyphs" textLength="76" x="458" y="384.5352">Chartreuse</text><ellipse cx="375.5" cy="396.4766" fill="#000000" rx="2.5" ry="2.5" style="stroke: #000000; stroke-width: 0.0;"/><text fill="#000000" font-family="sans-serif" font-size="14" lengthAdjust="spacingAndGlyphs" textLength="158" x="382" y="401.0234">Implementations are in</text><text fill="#000000" filter="url(#bp8aawcs7jwqk1)" font-family="sans-serif" font-size="14" lengthAdjust="spacingAndGlyphs" textLength="97" x="544" y="401.0234">LemonChiffon</text><ellipse cx="375.5" cy="412.9648" fill="#000000" rx="2.5" ry="2.5" style="stroke: #000000; stroke-width: 0.0;"/><text fill="#000000" font-family="sans-serif" font-size="14" lengthAdjust="spacingAndGlyphs" textLength="128" x="382" y="417.5117">Applications are in</text><text fill="#000000" filter="url(#bp8aawcs7jwqk2)" font-family="sans-serif" font-size="14" lengthAdjust="spacingAndGlyphs" textLength="36" x="514" y="417.5117">Aqua</text><!--
@startuml

folder global.namespace.fun-io {
    [fun-io-api] #Chartreuse
    [fun-io-scala-api] #Chartreuse
    [fun-io-delta] #Aqua

    [fun-io-api] <|- - [fun-io-bios]
    [fun-io-api] <|- - [fun-io-commons-compress]
    [fun-io-api] <|- - [fun-io-jackson]
    [fun-io-api] <|- - [fun-io-jaxb]
    [fun-io-api] <- - - [fun-io-scala-api]
    [fun-io-api] <|- - [fun-io-xz]

    [fun-io-bios] <- - [fun-io-delta]
    [fun-io-jackson] <- - [fun-io-delta]
}

[commons-compress] <- - - [fun-io-commons-compress]

[jackson-databind] <- - - [fun-io-jackson]

[activation-api] #Chartreuse
[activation-api] <- - - [fun-io-jaxb]
[jaxb-runtime] <- - - [fun-io-jaxb]

[jaxb-api] #Chartreuse
[jaxb-api] <- - [fun-io-jaxb]

[xz] <- - - [fun-io-xz]

legend
* APIs are in <back:Chartreuse>Chartreuse</back>
* Implementations are in <back:LemonChiffon>LemonChiffon</back>
* Applications are in <back:Aqua>Aqua</back>
end legend

skinparam componentBackgroundColor LemonChiffon
@enduml

PlantUML version 1.2018.03(Thu Apr 05 20:59:15 GST 2018)
(GPL source distribution)
Java Runtime: Java(TM) SE Runtime Environment
JVM: Java HotSpot(TM) 64-Bit Server VM
Java Version: 10.0.1+10
Operating System: Mac OS X
OS Version: 10.13.4
Default Encoding: UTF-8
Language: en
Country: AE
--></g></svg>