<?xml version="1.0" encoding="UTF-8" standalone="no"?><svg xmlns="http://www.w3.org/2000/svg" xmlns:xlink="http://www.w3.org/1999/xlink" contentScriptType="application/ecmascript" contentStyleType="text/css" height="192px" preserveAspectRatio="none" style="width:380px;height:192px;" version="1.1" viewBox="0 0 380 192" width="380px" zoomAndPan="magnify"><defs><filter height="300%" id="fg6596dupjzkw" width="300%" x="-1" y="-1"><feGaussianBlur result="blurOut" stdDeviation="2.0"/><feColorMatrix in="blurOut" result="blurOut2" type="matrix" values="0 0 0 0 0 0 0 0 0 0 0 0 0 0 0 0 0 0 .4 0"/><feOffset dx="4.0" dy="4.0" in="blurOut2" result="blurOut3"/><feBlend in="SourceGraphic" in2="blurOut3" mode="normal"/></filter></defs><g><!--class Car--><rect fill="#FEFECE" filter="url(#fg6596dupjzkw)" height="48" id="Car" style="stroke: #A80036; stroke-width: 1.5;" width="52" x="160.5" y="8"/><ellipse cx="175.5" cy="24" fill="#ADD1B2" rx="11" ry="11" style="stroke: #A80036; stroke-width: 1.0;"/><path d="M178.4731,29.6431 Q177.8921,29.9419 177.2529,30.0913 Q176.6138,30.2407 175.9082,30.2407 Q173.4014,30.2407 172.0815,28.5889 Q170.7617,26.937 170.7617,23.8159 Q170.7617,20.6865 172.0815,19.0347 Q173.4014,17.3828 175.9082,17.3828 Q176.6138,17.3828 177.2612,17.5322 Q177.9087,17.6816 178.4731,17.9805 L178.4731,20.7031 Q177.8423,20.1221 177.2488,19.8523 Q176.6553,19.5825 176.0244,19.5825 Q174.6797,19.5825 173.9949,20.6492 Q173.3101,21.7158 173.3101,23.8159 Q173.3101,25.9077 173.9949,26.9744 Q174.6797,28.041 176.0244,28.041 Q176.6553,28.041 177.2488,27.7712 Q177.8423,27.5015 178.4731,26.9204 Z "/><text fill="#000000" font-family="sans-serif" font-size="12" lengthAdjust="spacingAndGlyphs" textLength="20" x="189.5" y="28.5352">Car</text><line style="stroke: #A80036; stroke-width: 1.5;" x1="161.5" x2="211.5" y1="40" y2="40"/><line style="stroke: #A80036; stroke-width: 1.5;" x1="161.5" x2="211.5" y1="48" y2="48"/><!--class Driver--><rect fill="#FEFECE" filter="url(#fg6596dupjzkw)" height="48" id="Driver" style="stroke: #A80036; stroke-width: 1.5;" width="67" x="6" y="8"/><ellipse cx="21" cy="24" fill="#ADD1B2" rx="11" ry="11" style="stroke: #A80036; stroke-width: 1.0;"/><path d="M23.9731,29.6431 Q23.3921,29.9419 22.7529,30.0913 Q22.1138,30.2407 21.4082,30.2407 Q18.9014,30.2407 17.5815,28.5889 Q16.2617,26.937 16.2617,23.8159 Q16.2617,20.6865 17.5815,19.0347 Q18.9014,17.3828 21.4082,17.3828 Q22.1138,17.3828 22.7612,17.5322 Q23.4087,17.6816 23.9731,17.9805 L23.9731,20.7031 Q23.3423,20.1221 22.7488,19.8523 Q22.1553,19.5825 21.5244,19.5825 Q20.1797,19.5825 19.4949,20.6492 Q18.8101,21.7158 18.8101,23.8159 Q18.8101,25.9077 19.4949,26.9744 Q20.1797,28.041 21.5244,28.041 Q22.1553,28.041 22.7488,27.7712 Q23.3423,27.5015 23.9731,26.9204 Z "/><text fill="#000000" font-family="sans-serif" font-size="12" lengthAdjust="spacingAndGlyphs" textLength="35" x="35" y="28.5352">Driver</text><line style="stroke: #A80036; stroke-width: 1.5;" x1="7" x2="72" y1="40" y2="40"/><line style="stroke: #A80036; stroke-width: 1.5;" x1="7" x2="72" y1="48" y2="48"/><!--class Wheel--><rect fill="#FEFECE" filter="url(#fg6596dupjzkw)" height="48" id="Wheel" style="stroke: #A80036; stroke-width: 1.5;" width="66" x="303.5" y="8"/><ellipse cx="318.5" cy="24" fill="#ADD1B2" rx="11" ry="11" style="stroke: #A80036; stroke-width: 1.0;"/><path d="M321.4731,29.6431 Q320.8921,29.9419 320.2529,30.0913 Q319.6138,30.2407 318.9082,30.2407 Q316.4014,30.2407 315.0815,28.5889 Q313.7617,26.937 313.7617,23.8159 Q313.7617,20.6865 315.0815,19.0347 Q316.4014,17.3828 318.9082,17.3828 Q319.6138,17.3828 320.2612,17.5322 Q320.9087,17.6816 321.4731,17.9805 L321.4731,20.7031 Q320.8423,20.1221 320.2488,19.8523 Q319.6553,19.5825 319.0244,19.5825 Q317.6797,19.5825 316.9949,20.6492 Q316.3101,21.7158 316.3101,23.8159 Q316.3101,25.9077 316.9949,26.9744 Q317.6797,28.041 319.0244,28.041 Q319.6553,28.041 320.2488,27.7712 Q320.8423,27.5015 321.4731,26.9204 Z "/><text fill="#000000" font-family="sans-serif" font-size="12" lengthAdjust="spacingAndGlyphs" textLength="34" x="332.5" y="28.5352">Wheel</text><line style="stroke: #A80036; stroke-width: 1.5;" x1="304.5" x2="368.5" y1="40" y2="40"/><line style="stroke: #A80036; stroke-width: 1.5;" x1="304.5" x2="368.5" y1="48" y2="48"/><!--class Person--><rect fill="#FEFECE" filter="url(#fg6596dupjzkw)" height="48" id="Person" style="stroke: #A80036; stroke-width: 1.5;" width="71" x="151" y="133"/><ellipse cx="166" cy="149" fill="#ADD1B2" rx="11" ry="11" style="stroke: #A80036; stroke-width: 1.0;"/><path d="M168.9731,154.6431 Q168.3921,154.9419 167.7529,155.0913 Q167.1138,155.2407 166.4082,155.2407 Q163.9014,155.2407 162.5815,153.5889 Q161.2617,151.937 161.2617,148.8159 Q161.2617,145.6865 162.5815,144.0347 Q163.9014,142.3828 166.4082,142.3828 Q167.1138,142.3828 167.7612,142.5322 Q168.4087,142.6816 168.9731,142.9805 L168.9731,145.7031 Q168.3423,145.1221 167.7488,144.8523 Q167.1553,144.5825 166.5244,144.5825 Q165.1797,144.5825 164.4949,145.6492 Q163.8101,146.7158 163.8101,148.8159 Q163.8101,150.9077 164.4949,151.9744 Q165.1797,153.041 166.5244,153.041 Q167.1553,153.041 167.7488,152.7712 Q168.3423,152.5015 168.9731,151.9204 Z "/><text fill="#000000" font-family="sans-serif" font-size="12" lengthAdjust="spacingAndGlyphs" textLength="39" x="180" y="153.5352">Person</text><line style="stroke: #A80036; stroke-width: 1.5;" x1="152" x2="221" y1="165" y2="165"/><line style="stroke: #A80036; stroke-width: 1.5;" x1="152" x2="221" y1="173" y2="173"/><!--link Driver to Car--><path d="M73.2248,32 C99.6713,32 135.9495,32 160.2564,32 " fill="none" id="Driver-Car" style="stroke: #A80036; stroke-width: 1.0;"/><text fill="#000000" font-family="sans-serif" font-size="13" lengthAdjust="spacingAndGlyphs" textLength="38" x="91.25" y="25.5684">drives</text><polygon fill="#000000" points="132.25,19.1553,138.25,22.1553,132.25,25.1553,132.25,19.1553" style="stroke: #000000; stroke-width: 1.0;"/><!--link Car to Wheel--><path d="M225.6304,32 C249.7661,32 280.3843,32 303.3264,32 " fill="none" id="Car-Wheel" style="stroke: #A80036; stroke-width: 1.0;"/><polygon fill="#A80036" points="212.628,32,218.628,36,224.628,32,218.628,28,212.628,32" style="stroke: #A80036; stroke-width: 1.0;"/><text fill="#000000" font-family="sans-serif" font-size="13" lengthAdjust="spacingAndGlyphs" textLength="41" x="231" y="25.5684">have 4</text><polygon fill="#000000" points="275,19.1553,281,22.1553,275,25.1553,275,19.1553" style="stroke: #000000; stroke-width: 1.0;"/><!--link Car to Person--><path d="M186.5,56.1013 C186.5,78.2359 186.5,110.8615 186.5,132.9727 " fill="none" id="Car-Person" style="stroke: #A80036; stroke-width: 1.0;"/><polygon fill="#000000" points="199.5,97,202.5,91,205.5,97,199.5,97" style="stroke: #000000; stroke-width: 1.0;"/><text fill="#000000" font-family="sans-serif" font-size="13" lengthAdjust="spacingAndGlyphs" textLength="33" x="187.5" y="112.5684">owns</text><!--
@startuml
class Car

Driver - Car : drives >
Car *- Wheel : have 4 >
Car - - Person : < owns

@enduml

PlantUML version 1.2018.05(Sun May 06 00:00:17 GST 2018)
(GPL source distribution)
Java Runtime: Java(TM) SE Runtime Environment
JVM: Java HotSpot(TM) 64-Bit Server VM
Java Version: 10.0.1+10
Operating System: Mac OS X
OS Version: 10.13.4
Default Encoding: UTF-8
Language: en
Country: AE
--></g></svg>